# xmcd CD database file
#
# Track frame offsets:
#	150
#	17575
#	39356
#	57437
#	76928
#	98909
#	118695
#	132497
#	155392
#	174672
#
# Disc length: 3031 seconds
#
# Revision: 0
# Processed by: cddbd v1.5.2PL0 Copyright (c) Steve Scherf et al.
# Submitted via: CDex 2.09
#
DISCID=7a0bd50a
DTITLE=The Teskey Brothers - Half Mile Harvest
DYEAR=2018
DGENRE=Blues
TTITLE0=Crying Shame
TTITLE1=Say You'll Do
TTITLE2=Pain And Misery
TTITLE3=Shiny Moon
TTITLE4=Reason Why
TTITLE5=I Get Up
TTITLE6=Louisa
TTITLE7=Ti' The Sky Turns Black
TTITLE8=Hard Feelings
TTITLE9=Honey Moon
EXTD=YEAR: 2018
EXTT0=
EXTT1=
EXTT2=
EXTT3=
EXTT4=
EXTT5=
EXTT6=
EXTT7=
EXTT8=
EXTT9=
PLAYORDER=
